Coordinates
version=1
nRows=17
nColumns=40
inDegrees=yes

Units are S.I. units (second, meters, Newtons, ...)
If the header above contains a line with 'inDegrees', this indicates whether rotational values are in degrees (yes) or radians (no).

endheader
time	pelvis_tilt	pelvis_list	pelvis_rotation	pelvis_tx	pelvis_ty	pelvis_tz	hip_flexion_r	hip_adduction_r	hip_rotation_r	knee_angle_r	knee_angle_r_beta	ankle_angle_r	subtalar_angle_r	mtp_angle_r	hip_flexion_l	hip_adduction_l	hip_rotation_l	knee_angle_l	knee_angle_l_beta	ankle_angle_l	subtalar_angle_l	mtp_angle_l	lumbar_extension	lumbar_bending	lumbar_rotation	arm_flex_r	arm_add_r	arm_rot_r	elbow_flex_r	pro_sup_r	wrist_flex_r	wrist_dev_r	arm_flex_l	arm_add_l	arm_rot_l	elbow_flex_l	pro_sup_l	wrist_flex_l	wrist_dev_l
      4.31500000	      1.63497779	     -7.24461219	      4.07011878	     -0.37559536	      0.82817944	     -1.05276321	     59.99628267	     -1.64355872	    -11.43270068	     26.90272043	      0.46954105	    -12.32719750	      0.00000000	      0.00000000	     48.31390782	     -2.04489029	      0.45668236	     84.65187044	      1.47745386	     23.96472831	      0.00000000	      0.00000000	    -21.41056438	      6.25128480	      3.36614108	     89.87381497	    -21.87689782	     23.47909940	     48.58839015	     85.23465206	      0.00000000	      0.00000000	     89.91326164	    -23.31887093	     31.87537691	     45.56733195	     85.42448655	      0.00000000	      0.00000000
      4.32000000	      1.63384725	     -7.25354257	      4.13433755	     -0.37550717	      0.82963830	     -1.05274854	     59.91385970	     -1.67691700	    -11.41878059	     26.86129253	      0.46881800	    -12.32978279	      0.00000000	      0.00000000	     48.17408632	     -2.06695974	      0.45089542	     84.38091321	      1.47272476	     23.85247208	      0.00000000	      0.00000000	    -21.35600142	      6.27700728	      3.33199414	     89.87274771	    -21.92492643	     23.52996634	     48.55775420	     85.23261303	      0.00000000	      0.00000000	     89.91294904	    -23.33022192	     31.93796682	     45.57266493	     85.42660399	      0.00000000	      0.00000000
      4.32500000	      1.61778721	     -7.24986424	      4.15808393	     -0.37529483	      0.83108855	     -1.05277302	     59.84460548	     -1.69981620	    -11.42797941	     26.80528480	      0.46784048	    -12.31422793	      0.00000000	      0.00000000	     48.02075874	     -2.08855180	      0.43768078	     84.10085776	      1.46783687	     23.73595593	      0.00000000	      0.00000000	    -21.29448229	      6.28243851	      3.30388880	     89.87230522	    -21.94646163	     23.61223177	     48.52680456	     85.23399200	      0.00000000	      0.00000000	     89.91241721	    -23.34880927	     31.98218461	     45.58243338	     85.42447881	      0.00000000	      0.00000000
      4.33000000	      1.63123250	     -7.22125337	      4.19254200	     -0.37522339	      0.83266603	     -1.05274507	     59.73130065	     -1.72554538	    -11.45290957	     26.71563989	      0.46627588	    -12.33310988	      0.00000000	      0.00000000	     47.83514897	     -2.08298350	      0.40279660	     83.77000252	      1.46206236	     23.58244329	      0.00000000	      0.00000000	    -21.26706243	      6.25301252	      3.27423587	     89.87152689	    -21.99360166	     23.70759221	     48.47493802	     85.23649792	      0.00000000	      0.00000000	     89.91241158	    -23.35010864	     32.05638420	     45.59656693	     85.42289865	      0.00000000	      0.00000000
      4.33500000	      1.63909654	     -7.20435453	      4.22422829	     -0.37502535	      0.83416226	     -1.05282049	     59.62601148	     -1.75429681	    -11.46491678	     26.64687023	      0.46507562	    -12.33410195	      0.00000000	      0.00000000	     47.66215892	     -2.08591697	      0.37387966	     83.49036121	      1.45718170	     23.44271473	      0.00000000	      0.00000000	    -21.22353863	      6.25183647	      3.21651161	     89.87062150	    -22.02500406	     23.81137995	     48.45558434	     85.23535564	      0.00000000	      0.00000000	     89.91227809	    -23.39276191	     32.14907936	     45.58679295	     85.42259354	      0.00000000	      0.00000000
      4.34000000	      1.64518215	     -7.20370808	      4.27415170	     -0.37493307	      0.83572199	     -1.05283539	     59.52631464	     -1.78265520	    -11.43440609	     26.59420299	      0.46415640	    -12.36104271	      0.00000000	      0.00000000	     47.49821387	     -2.09333855	      0.37045797	     83.18953761	      1.45193133	     23.30941692	      0.00000000	      0.00000000	    -21.18397377	      6.26131643	      3.19745033	     89.86981180	    -22.07821043	     23.87448667	     48.41706591	     85.22869459	      0.00000000	      0.00000000	     89.91163802	    -23.40011312	     32.21359690	     45.62369828	     85.42031051	      0.00000000	      0.00000000
      4.34500000	      1.60910598	     -7.20196866	      4.30745544	     -0.37481308	      0.83709471	     -1.05284405	     59.48452795	     -1.81417375	    -11.45079432	     26.55497491	      0.46347175	    -12.34908548	      0.00000000	      0.00000000	     47.39869310	     -2.11130266	      0.34289259	     82.93718119	      1.44752688	     23.20947216	      0.00000000	      0.00000000	    -21.10560797	      6.27725827	      3.17332625	     89.86918181	    -22.10578385	     23.91411301	     48.40609582	     85.22635741	      0.00000000	      0.00000000	     89.91135514	    -23.41374266	     32.24571646	     45.63096379	     85.41706325	      0.00000000	      0.00000000
      4.35000000	      1.60807777	     -7.19580593	      4.32890818	     -0.37471029	      0.83870013	     -1.05284604	     59.39653774	     -1.82705466	    -11.46539568	     26.51173772	      0.46271711	    -12.36795576	      0.00000000	      0.00000000	     47.22125756	     -2.11803589	      0.33516151	     82.59877405	      1.44162057	     23.04786475	      0.00000000	      0.00000000	    -21.05861282	      6.26249114	      3.16493351	     89.86789554	    -22.17071370	     23.99636615	     48.34748631	     85.22536270	      0.00000000	      0.00000000	     89.91068457	    -23.41431085	     32.34138554	     45.64716928	     85.41768237	      0.00000000	      0.00000000
      4.35500000	      1.59461110	     -7.18091591	      4.34649454	     -0.37456417	      0.84017426	     -1.05280234	     59.32103005	     -1.84361819	    -11.49539828	     26.46817993	      0.46195689	    -12.36844562	      0.00000000	      0.00000000	     47.07987448	     -2.13210302	      0.30868115	     82.32460224	      1.43683536	     22.89921198	      0.00000000	      0.00000000	    -21.00003206	      6.24990977	      3.15645289	     89.86715567	    -22.22242321	     24.04949364	     48.33612224	     85.21979989	      0.00000000	      0.00000000	     89.91055727	    -23.42509710	     32.41177170	     45.67009476	     85.41444463	      0.00000000	      0.00000000
      4.36000000	      1.67154310	     -7.12690220	      4.35795945	     -0.37432778	      0.84194040	     -1.05287192	     59.10983177	     -1.87387041	    -11.54385636	     26.36394930	      0.46013772	    -12.38620525	      0.00000000	      0.00000000	     46.80500528	     -2.10458800	      0.27938795	     82.01512850	      1.43143403	     22.65910455	      0.00000000	      0.00000000	    -21.03107843	      6.19731136	      3.15350937	     89.86665341	    -22.27846811	     24.26319656	     48.25549288	     85.21913203	      0.00000000	      0.00000000	     89.91040945	    -23.41492456	     32.59660457	     45.65059400	     85.40945292	      0.00000000	      0.00000000
      4.36500000	      1.61607823	     -7.17147318	      4.39487137	     -0.37429791	      0.84335573	     -1.05281043	     59.09435568	     -1.86176419	    -11.54018234	     26.34019845	      0.45972319	    -12.38884518	      0.00000000	      0.00000000	     46.73040899	     -2.16666068	      0.26758047	     81.73418709	      1.42653068	     22.57340139	      0.00000000	      0.00000000	    -20.93589848	      6.24298143	      3.12247591	     89.86555503	    -22.34002042	     24.26242994	     48.27216795	     85.20834971	      0.00000000	      0.00000000	     89.91040644	    -23.44199282	     32.58854610	     45.67614816	     85.40132912	      0.00000000	      0.00000000
      4.37000000	      1.58992748	     -7.19789880	      4.41132740	     -0.37407536	      0.84488487	     -1.05278056	     59.03021989	     -1.84545407	    -11.56805260	     26.32359717	      0.45943344	    -12.36921898	      0.00000000	      0.00000000	     46.59884960	     -2.19737697	      0.27860566	     81.44153861	      1.42142300	     22.46461009	      0.00000000	      0.00000000	    -20.86929003	      6.27784530	      3.12221786	     89.86488218	    -22.36218153	     24.30353879	     48.25894109	     85.20286336	      0.00000000	      0.00000000	     89.90942005	    -23.46452951	     32.61942040	     45.68787022	     85.39743728	      0.00000000	      0.00000000
      4.37500000	      1.67522272	     -7.16440859	      4.45510984	     -0.37396752	      0.84669535	     -1.05283157	     58.81743951	     -1.87964308	    -11.62423387	     26.25364732	      0.45821259	    -12.34485991	      0.00000000	      0.00000000	     46.32261095	     -2.17302704	      0.27344736	     81.10318281	      1.41551757	     22.21222071	      0.00000000	      0.00000000	    -20.90405743	      6.23742121	      3.09776673	     89.86481288	    -22.43642864	     24.48375189	     48.21653649	     85.18232058	      0.00000000	      0.00000000	     89.90976531	    -23.44584654	     32.82461812	     45.69839471	     85.38627932	      0.00000000	      0.00000000
      4.38000000	      1.64521961	     -7.18460260	      4.47592304	     -0.37384022	      0.84817696	     -1.05280633	     58.77400478	     -1.86897692	    -11.63351125	     26.22483441	      0.45770971	    -12.36187867	      0.00000000	      0.00000000	     46.18600824	     -2.20723632	      0.27361139	     80.79411930	      1.41012340	     22.12163844	      0.00000000	      0.00000000	    -20.83091373	      6.27094822	      3.09760549	     89.86284983	    -22.46718590	     24.47940712	     48.18702182	     85.17184020	      0.00000000	      0.00000000	     89.90915944	    -23.46166735	     32.82640204	     45.71254013	     85.37657844	      0.00000000	      0.00000000
      4.38500000	      1.64958864	     -7.17421415	      4.47329398	     -0.37368184	      0.84983314	     -1.05278746	     58.67589030	     -1.85438637	    -11.64404200	     26.19592028	      0.45720506	    -12.37234535	      0.00000000	      0.00000000	     45.98731312	     -2.21027843	      0.26775200	     80.45077340	      1.40413088	     22.00090645	      0.00000000	      0.00000000	    -20.79693116	      6.26305311	      3.09834310	     89.86134425	    -22.49321803	     24.53337737	     48.15093775	     85.16751136	      0.00000000	      0.00000000	     89.90841377	    -23.47617696	     32.87991910	     45.68751161	     85.37257190	      0.00000000	      0.00000000
      4.39000000	      1.68329863	     -7.14990857	      4.46695027	     -0.37352833	      0.85146201	     -1.05276405	     58.53281775	     -1.83929703	    -11.63754929	     26.12953271	      0.45604638	    -12.38873285	      0.00000000	      0.00000000	     45.76535532	     -2.21285964	      0.24867354	     80.13024438	      1.39853659	     21.84205192	      0.00000000	      0.00000000	    -20.77857939	      6.22676454	      3.11891621	     89.86092444	    -22.53999684	     24.61727904	     48.09190752	     85.15083296	      0.00000000	      0.00000000	     89.90839769	    -23.47203831	     33.01666300	     45.69340278	     85.36981754	      0.00000000	      0.00000000
      4.39500000	      1.71580896	     -7.16266387	      4.48084274	     -0.37330289	      0.85321400	     -1.05276201	     58.39341583	     -1.81583649	    -11.62467057	     26.09107950	      0.45537524	    -12.37870045	      0.00000000	      0.00000000	     45.54368227	     -2.24680630	      0.24441556	     79.79246119	      1.39264117	     21.69929221	      0.00000000	      0.00000000	    -20.76968759	      6.25360781	      3.11876713	     89.85873339	    -22.58533630	     24.71554235	     48.06817878	     85.13911188	      0.00000000	      0.00000000	     89.90801550	    -23.49744579	     33.12863100	     45.68506502	     85.36376527	      0.00000000	      0.00000000
